<svg id="svg2996" xmlns="http://www.w3.org/2000/svg" viewBox="0 0 1157.38 681.19"><defs><style>.cls-1{fill-rule:evenodd;}</style></defs><path id="path126" class="cls-1" d="M180.79,31.15a3.73,3.73,0,0,0-1.38.25,24.9,24.9,0,0,0-11.68,8.66,47.85,47.85,0,0,0-6.88,13.43,77.65,77.65,0,0,0-3.47,15.41c-.47,4-.76,7.75-.87,11.25H94v-.06H90V621.56h4v1H1111.16v-6.88H94V581.4H1111.16v-6.84H94V540.24H1111.16V533.4H94V499.12H1111.16v-6.88H94V458H1111.16v-6.84H94V251.56h94.06c.85,3.34,2.12,8.38,4.47,17.87.63,3.33,1.07,5.79,1.34,7.38a34.77,34.77,0,0,1,.28,6.62,47.08,47.08,0,0,1-.93,8.19,17.94,17.94,0,0,1-2.44,6.34,27.08,27.08,0,0,1-7.09,6.28,28.45,28.45,0,0,1-9.69,4,21.22,21.22,0,0,1-10-.22,11.9,11.9,0,0,1-7.56-6.12q6.62.25,10.34-2.66a13.63,13.63,0,0,0,4.94-7.09,17.86,17.86,0,0,0,.12-9A19.3,19.3,0,0,0,168,275a13.89,13.89,0,0,0-7-4.62c-2.84-.8-6-.31-9.53,1.5a17.33,17.33,0,0,0-7.63,7.56,21.2,21.2,0,0,0-2.91,10.28,19.78,19.78,0,0,0,4.85,13.53,29.39,29.39,0,0,0,12,8.22,32,32,0,0,0,11.91,2.31,51.07,51.07,0,0,0,6.56-.71c3.2-.52,6.72-2.19,10.59-5a30.38,30.38,0,0,0,9.28-11A28.66,28.66,0,0,0,199,281.87a103.86,103.86,0,0,0-1.69-14.31c-.63-3.07-1.88-8.75-3.47-16h917.28v-6.85H193.82a4.51,4.51,0,0,1,1.09-.62,29.36,29.36,0,0,0,3.85-1.82q12.17-6.89,17.72-21.21a56.6,56.6,0,0,0,2-10.63h892.71v-6.87H218.51a36.88,36.88,0,0,0-2.91-11.79A46.65,46.65,0,0,0,207.48,179a36.61,36.61,0,0,0-12.1-8.93c-.76-.3-1.54-.57-2.34-.82h918.12v-6.84H175.85l-4.53-22.22c0-.18.39-.7,1.16-1.56s1.63-1.76,2.62-2.75L178,133l2-2c.82-.94,1.56-1.9,2.28-2.87h928.9v-6.88H186.6l1.88-3.21a74.32,74.32,0,0,0,7.37-22.19c.48-3,.83-5.9,1.06-8.88h914.25V80.15H197.23c0-2.41,0-4.83-.1-7.25a86.66,86.66,0,0,0-2-15.47,57,57,0,0,0-5.31-14.66,30.15,30.15,0,0,1-1.62-3.06,35.19,35.19,0,0,0-2.5-4.31A15.94,15.94,0,0,0,183,32.21a3.68,3.68,0,0,0-2.22-1.06ZM183,55.84a9.26,9.26,0,0,1,2.62.15c1.76.36,3.2,1.69,4.28,3.94a14.76,14.76,0,0,1,1.75,9.31,45.57,45.57,0,0,1-2,10c-.09.3-.21.61-.31.91H165.13c.44-1.77.94-3.51,1.53-5.22a70.63,70.63,0,0,1,5.19-11.75,20.78,20.78,0,0,1,3.47-3.72,15.38,15.38,0,0,1,5-3.06A9.52,9.52,0,0,1,183,55.84ZM75.48,80.15c-1.64.1-3.38,1.83-6.35,6.09-6,7.94-14.59,26.53-18,36.22C46,142.8,44.26,167.53,46,191.4c.84,7.93,2.53,25.58,5.12,39.72,4.28,33.6,5.16,47.74,5.16,61.87-.88,23-6.85,41.51-16.31,53.88-1.72,1.76-2.57,3.53-2.57,4.44s.85,2.67,2.57,4.43c9.46,12.37,15.43,30.89,16.31,53,0,15-.88,29.12-5.16,61.82-2.59,15-4.28,32.71-5.12,39.78-1.72,24.73,0,49.47,5.12,68.9,4.28,15.9,19.75,43.32,24.06,43.32A3.78,3.78,0,0,0,78.6,619c0-.89-1.72-3.52-3.44-6.18-10.3-15-14.62-30-16.34-53,0-14.14.88-27.41,5.16-61,1.71-13.24,3.43-29.14,4.31-35.35,3.44-42.4-3.42-78.62-20.59-105.12a52.09,52.09,0,0,1-4.32-7.06,51.09,51.09,0,0,1,4.32-7.1c17.17-26.5,24-62.73,20.59-106-.88-5.3-2.6-21.19-4.31-35.31-4.28-32.67-5.16-46-5.16-60.1,1.72-23,6-38,16.34-53,3.44-5.3,4.32-7,2.6-8.81A3.74,3.74,0,0,0,75.48,80.15ZM94,87h62.53a85.4,85.4,0,0,0,1.66,14.1q1.76,8.58,4.06,17.5c-1,.89-2.06,1.77-3.06,2.68H94Zm69.78,0h22.87c-.22.53-.45,1.05-.68,1.6A80.72,80.72,0,0,1,174.1,107.9a25.37,25.37,0,0,1-7.78,6.5,50.18,50.18,0,0,1-2.91-12.63,64.19,64.19,0,0,1,.19-13.4C163.66,87.9,163.73,87.45,163.79,87ZM94,128.15h58A161,161,0,0,0,139.88,142a147.22,147.22,0,0,0-13.34,20.47H94Zm72.59,16.12,3.78,18.16H148.1c1.72-2,3.51-4,5.38-5.94A173.59,173.59,0,0,1,166.6,144.27ZM94,169.27h29c-.05.1-.08.19-.13.29a55.44,55.44,0,0,0-3.78,20.53v7.78a23.27,23.27,0,0,0,.88,5.69H94Zm48.72,0h27.53c-.84.6-1.8,1.29-2.31,1.63-.82.54-1.65,1.12-2.5,1.75a19.3,19.3,0,0,0-1.57,1.22,39.43,39.43,0,0,0-8.65,8.65,41.79,41.79,0,0,0-4.66,10.41,31,31,0,0,0-1.22,10.63H130.1a48.66,48.66,0,0,1,3.16-17.19,70.76,70.76,0,0,1,8.47-15.75C142.05,170.16,142.4,169.73,142.73,169.27Zm37.78,17.44a22.65,22.65,0,0,1,17,7,33,33,0,0,1,6.62,9.82H184Zm-4.72.53c1,5.19,2.14,11,3.19,16.32H160a23,23,0,0,1,4.78-9A23.56,23.56,0,0,1,175.79,187.24ZM94,210.43h28.34c.69,1.69,1.5,3.49,2.41,5.41A63.12,63.12,0,0,0,139.63,236,51.19,51.19,0,0,0,153,244.71H94Zm36.65,0h19.75a27.41,27.41,0,0,0,9.29,14.13,25.83,25.83,0,0,0,11.62,5.56c1.08,0,1.49-.48,1.22-1.38a1.87,1.87,0,0,0-2-1.34q-6.9-3.66-9.41-9.59a22.94,22.94,0,0,1-1.78-7.38h21c1.81,9.22,3.52,18.11,5.44,27.78l.81,3.78c0,.36-.7.72-2.09,1s-2.93.61-4.6.88-3.26.51-4.75.69c-.74.09-.83.08-1.25.12h-4.43a42.11,42.11,0,0,1-12.57-3,44.72,44.72,0,0,1-13.71-8.75,42.81,42.81,0,0,1-9.54-13A36.52,36.52,0,0,1,130.66,210.43Zm54.75,0h20.82a31.88,31.88,0,0,1-1.66,17.44q-3.37,8.85-13,12.5Z"/><g id="g2992"><path id="path2820" d="M109.15,591.89c0-1.5,7.27-7.71,16.14-13.79,19.09-13.07,32.87-27.37,40.88-42.42,18.39-34.52,12.56-70.5-11.94-73.79-13.55-1.81-30.7,8.07-30.7,17.7,0,3.57.91,3.86,10.85,3.42,12.15-.55,20.37,11.29,13.8,19.85-10.4,13.54-35.43,5.76-35.43-11,0-14.7,8.94-26.39,24.68-32.28,33.68-12.6,65.74,10.63,62.93,45.6-2.3,28.67-27.26,55.44-75.71,81.21-11.49,6.12-15.5,7.54-15.5,5.5Z"/><path id="path3598" d="M227.92,481a10.1,10.1,0,1,1-10.08-10.57A10.33,10.33,0,0,1,227.92,481Z"/><path id="path3600" d="M228.62,516.72a10.1,10.1,0,1,1-10.09-10.57A10.34,10.34,0,0,1,228.62,516.72Z"/></g></svg>